<svg xmlns="http://www.w3.org/2000/svg" xmlns:xlink="http://www.w3.org/1999/xlink" width="64" height="64" viewBox="0 0 64 64"><defs><linearGradient id="a"><stop offset="0" stop-color="#000092"/><stop offset="1" stop-color="#ff00f3"/></linearGradient><linearGradient id="b" x1="6" x2="55" y1="32" y2="32" gradientUnits="userSpaceOnUse" xlink:href="#a"/></defs><path fill="url(#b)" d="M 32 6 C 30.349068 6 29 7.34907 29 9 C 29 10.65093 30.349068 12 32 12 C 33.650932 12 35 10.65093 35 9 C 35 7.34907 33.650932 6 32 6 z M 32 7 C 33.110492 7 34 7.88951 34 9 C 34 10.11049 33.110492 11 32 11 C 30.889508 11 30 10.11049 30 9 C 30 7.88951 30.889508 7 32 7 z M 15.738281 12.740234 C 14.969468 12.740234 14.198926 13.031534 13.615234 13.615234 C 12.44785 14.782634 12.447843 16.690022 13.615234 17.857422 C 14.782618 19.024822 16.691992 19.024822 17.859375 17.857422 C 19.026759 16.690022 19.026759 14.782634 17.859375 13.615234 C 17.27568 13.031534 16.507094 12.740234 15.738281 12.740234 z M 48.263672 12.740234 C 47.494859 12.740234 46.72627 13.031534 46.142578 13.615234 C 44.975194 14.782634 44.975187 16.690022 46.142578 17.857422 C 47.309961 19.024822 49.217383 19.024822 50.384766 17.857422 C 51.55215 16.690022 51.55215 14.782634 50.384766 13.615234 C 49.80107 13.031534 49.032485 12.740234 48.263672 12.740234 z M 32 13 C 30.62521 13 29.5 14.1252 29.5 15.5 C 29.5 16.8748 30.62521 18 32 18 C 33.37479 18 34.5 16.8748 34.5 15.5 C 34.5 14.1252 33.37479 13 32 13 z M 15.738281 13.732422 C 16.249078 13.732422 16.759723 13.929616 17.152344 14.322266 C 17.937579 15.107466 17.937579 16.365191 17.152344 17.150391 C 16.367109 17.935591 15.107501 17.935591 14.322266 17.150391 C 13.537023 16.365191 13.537031 15.107466 14.322266 14.322266 C 14.714883 13.929616 15.227484 13.732422 15.738281 13.732422 z M 48.263672 13.732422 C 48.774469 13.732422 49.285113 13.929616 49.677734 14.322266 C 50.462969 15.107466 50.462969 16.365191 49.677734 17.150391 C 48.892499 17.935591 47.634844 17.935591 46.849609 17.150391 C 46.064367 16.365191 46.064374 15.107466 46.849609 14.322266 C 47.242227 13.929616 47.752875 13.732422 48.263672 13.732422 z M 32 14 C 32.834349 14 33.5 14.6657 33.5 15.5 C 33.5 16.3344 32.834349 17 32 17 C 31.165651 17 30.5 16.3344 30.5 15.5 C 30.5 14.6657 31.165651 14 32 14 z M 20.333984 17.835938 C 19.693132 17.835938 19.052468 18.078403 18.566406 18.564453 C 17.594283 19.536553 17.594283 21.127409 18.566406 22.099609 C 19.53853 23.071709 21.12944 23.071709 22.101562 22.099609 C 23.073685 21.127409 23.073685 19.536553 22.101562 18.564453 C 21.615501 18.078403 20.974837 17.835938 20.333984 17.835938 z M 43.667969 17.835938 C 43.027116 17.835938 42.386452 18.078403 41.900391 18.564453 C 40.928268 19.536553 40.928268 21.127409 41.900391 22.099609 C 42.872514 23.071709 44.463424 23.071709 45.435547 22.099609 C 46.40767 21.127409 46.40767 19.536553 45.435547 18.564453 C 44.949485 18.078403 44.308822 17.835938 43.667969 17.835938 z M 20.333984 18.830078 C 20.716821 18.830078 21.099544 18.976484 21.394531 19.271484 C 21.984506 19.861484 21.984506 20.802678 21.394531 21.392578 C 20.804557 21.982578 19.863412 21.982578 19.273438 21.392578 C 18.683463 20.802678 18.683462 19.861484 19.273438 19.271484 C 19.568425 18.976484 19.951148 18.830078 20.333984 18.830078 z M 43.667969 18.830078 C 44.050805 18.830078 44.433529 18.976484 44.728516 19.271484 C 45.318491 19.861484 45.318491 20.802678 44.728516 21.392578 C 44.138542 21.982578 43.197396 21.982578 42.607422 21.392578 C 42.017447 20.802678 42.017447 19.861484 42.607422 19.271484 C 42.902409 18.976484 43.285132 18.830078 43.667969 18.830078 z M 32 19 C 30.901353 19 30 19.9014 30 21 C 30 22.0987 30.901353 23 32 23 C 33.098647 23 34 22.0987 34 21 C 34 19.9014 33.098647 19 32 19 z M 32 20 C 32.558207 20 33 20.4418 33 21 C 33 21.5582 32.558207 22 32 22 C 31.441793 22 31 21.5582 31 21 C 31 20.4418 31.441793 20 32 20 z M 24.222656 22.224609 C 23.709765 22.224609 23.197025 22.418191 22.808594 22.806641 C 22.031731 23.583441 22.031731 24.859819 22.808594 25.636719 C 23.58545 26.413519 24.859856 26.413519 25.636719 25.636719 C 26.413582 24.859819 26.413575 23.583441 25.636719 22.806641 C 25.248287 22.418191 24.735547 22.224609 24.222656 22.224609 z M 39.779297 22.224609 C 39.266406 22.224609 38.753666 22.418191 38.365234 22.806641 C 37.588371 23.583441 37.588371 24.859819 38.365234 25.636719 C 39.14209 26.413519 40.416496 26.413519 41.193359 25.636719 C 41.970222 24.859819 41.970215 23.583441 41.193359 22.806641 C 40.804928 22.418191 40.292188 22.224609 39.779297 22.224609 z M 24.222656 23.21875 C 24.477531 23.21875 24.732331 23.318275 24.929688 23.515625 C 25.324395 23.910325 25.324402 24.534987 24.929688 24.929688 C 24.534973 25.324387 23.910332 25.324387 23.515625 24.929688 C 23.120911 24.534988 23.120911 23.910325 23.515625 23.515625 C 23.712982 23.318275 23.967782 23.21875 24.222656 23.21875 z M 39.779297 23.21875 C 40.034172 23.21875 40.288971 23.318275 40.486328 23.515625 C 40.881035 23.910325 40.881042 24.534987 40.486328 24.929688 C 40.091614 25.324387 39.466973 25.324387 39.072266 24.929688 C 38.677552 24.534988 38.677552 23.910325 39.072266 23.515625 C 39.269623 23.318275 39.524422 23.21875 39.779297 23.21875 z M 32 24 C 31.177495 24 30.5 24.6775 30.5 25.5 C 30.5 26.3225 31.177495 27 32 27 C 32.822505 27 33.5 26.3225 33.5 25.5 C 33.5 24.6775 32.822505 24 32 24 z M 32 25 C 32.282065 25 32.5 25.218 32.5 25.5 C 32.5 25.7821 32.282065 26 32 26 C 31.717935 26 31.5 25.7821 31.5 25.5 C 31.5 25.218 31.717935 25 32 25 z M 27.404297 25.90625 C 27.019367 25.90625 26.634551 26.05295 26.34375 26.34375 C 25.762154 26.92535 25.762147 27.883244 26.34375 28.464844 C 26.925345 29.046444 27.883249 29.046444 28.464844 28.464844 C 29.046447 27.883244 29.046439 26.92535 28.464844 26.34375 C 28.174043 26.05295 27.789226 25.90625 27.404297 25.90625 z M 36.597656 25.90625 C 36.212727 25.90625 35.82791 26.05295 35.537109 26.34375 C 34.955514 26.92535 34.955507 27.883244 35.537109 28.464844 C 36.118704 29.046444 37.076608 29.046444 37.658203 28.464844 C 38.239806 27.883244 38.239799 26.92535 37.658203 26.34375 C 37.367402 26.05295 36.982586 25.90625 36.597656 25.90625 z M 27.404297 26.900391 C 27.53121 26.900391 27.658086 26.951031 27.757812 27.050781 C 27.957259 27.250181 27.957266 27.558413 27.757812 27.757812 C 27.558366 27.957312 27.250227 27.957312 27.050781 27.757812 C 26.851327 27.558413 26.851334 27.250181 27.050781 27.050781 C 27.150508 26.951031 27.277384 26.900391 27.404297 26.900391 z M 36.597656 26.900391 C 36.72457 26.900391 36.851445 26.951031 36.951172 27.050781 C 37.150619 27.250181 37.150626 27.558413 36.951172 27.757812 C 36.751726 27.957312 36.443587 27.957312 36.244141 27.757812 C 36.044687 27.558413 36.044694 27.250181 36.244141 27.050781 C 36.343867 26.951031 36.470743 26.900391 36.597656 26.900391 z M 32 28 C 29.796783 28 28 29.7968 28 32 C 28 34.2032 29.796783 36 32 36 C 34.203217 36 36 34.2032 36 32 C 36 29.7968 34.203217 28 32 28 z M 9 29 C 7.3490681 29 6 30.3491 6 32 C 6 33.651 7.3490681 35 9 35 C 10.650932 35 12 33.651 12 32 C 12 30.3491 10.650932 29 9 29 z M 32 29 C 33.662777 29 35 30.3373 35 32 C 35 33.6628 33.662777 35 32 35 C 30.337223 35 29 33.6628 29 32 C 29 30.3373 30.337223 29 32 29 z M 55 29 C 53.349068 29 52 30.3491 52 32 C 52 33.651 53.349068 35 55 35 C 56.650932 35 58 33.651 58 32 C 58 30.3491 56.650932 29 55 29 z M 15.5 29.5 C 14.12521 29.5 13 30.6252 13 32 C 13 33.3748 14.12521 34.5 15.5 34.5 C 16.87479 34.5 18 33.3748 18 32 C 18 30.6252 16.87479 29.5 15.5 29.5 z M 48.5 29.5 C 47.12521 29.5 46 30.6252 46 32 C 46 33.3748 47.12521 34.5 48.5 34.5 C 49.87479 34.5 51 33.3748 51 32 C 51 30.6252 49.87479 29.5 48.5 29.5 z M 9 30 C 10.110492 30 11 30.8895 11 32 C 11 33.1105 10.110492 34 9 34 C 7.8895082 34 7 33.1105 7 32 C 7 30.8895 7.8895082 30 9 30 z M 21 30 C 19.901353 30 19 30.9014 19 32 C 19 33.0987 19.901353 34 21 34 C 22.098647 34 23 33.0987 23 32 C 23 30.9014 22.098647 30 21 30 z M 43 30 C 41.901353 30 41 30.9014 41 32 C 41 33.0987 41.901353 34 43 34 C 44.098647 34 45 33.0987 45 32 C 45 30.9014 44.098647 30 43 30 z M 55 30 C 56.110492 30 57 30.8895 57 32 C 57 33.1105 56.110492 34 55 34 C 53.889508 34 53 33.1105 53 32 C 53 30.8895 53.889508 30 55 30 z M 15.5 30.5 C 16.334349 30.5 17 31.1657 17 32 C 17 32.8344 16.334349 33.5 15.5 33.5 C 14.665651 33.5 14 32.8344 14 32 C 14 31.1657 14.665651 30.5 15.5 30.5 z M 25.5 30.5 C 24.677495 30.5 24 31.1775 24 32 C 24 32.8225 24.677495 33.5 25.5 33.5 C 26.322505 33.5 27 32.8225 27 32 C 27 31.1775 26.322505 30.5 25.5 30.5 z M 32 30.5 C 31.177495 30.5 30.5 31.1775 30.5 32 C 30.5 32.8225 31.177495 33.5 32 33.5 C 32.822505 33.5 33.5 32.8225 33.5 32 C 33.5 31.1775 32.822505 30.5 32 30.5 z M 38.5 30.5 C 37.677495 30.5 37 31.1775 37 32 C 37 32.8225 37.677495 33.5 38.5 33.5 C 39.322505 33.5 40 32.8225 40 32 C 40 31.1775 39.322505 30.5 38.5 30.5 z M 48.5 30.5 C 49.334349 30.5 50 31.1657 50 32 C 50 32.8344 49.334349 33.5 48.5 33.5 C 47.665651 33.5 47 32.8344 47 32 C 47 31.1657 47.665651 30.5 48.5 30.5 z M 21 31 C 21.558207 31 22 31.4418 22 32 C 22 32.5582 21.558207 33 21 33 C 20.441793 33 20 32.5582 20 32 C 20 31.4418 20.441793 31 21 31 z M 43 31 C 43.558207 31 44 31.4418 44 32 C 44 32.5582 43.558207 33 43 33 C 42.441793 33 42 32.5582 42 32 C 42 31.4418 42.441793 31 43 31 z M 25.5 31.5 C 25.782065 31.5 26 31.718 26 32 C 26 32.2821 25.782065 32.5 25.5 32.5 C 25.217935 32.5 25 32.2821 25 32 C 25 31.718 25.217935 31.5 25.5 31.5 z M 32 31.5 C 32.282065 31.5 32.5 31.718 32.5 32 C 32.5 32.2821 32.282065 32.5 32 32.5 C 31.717935 32.5 31.5 32.2821 31.5 32 C 31.5 31.718 31.717935 31.5 32 31.5 z M 38.5 31.5 C 38.782065 31.5 39 31.718 39 32 C 39 32.2821 38.782065 32.5 38.5 32.5 C 38.217935 32.5 38 32.2821 38 32 C 38 31.718 38.217935 31.5 38.5 31.5 z M 27.404297 35.099609 C 27.019367 35.099609 26.634551 35.244356 26.34375 35.535156 C 25.762154 36.116756 25.762147 37.07465 26.34375 37.65625 C 26.925345 38.23785 27.883249 38.23785 28.464844 37.65625 C 29.046447 37.07465 29.046439 36.116756 28.464844 35.535156 C 28.174043 35.244356 27.789226 35.099609 27.404297 35.099609 z M 36.597656 35.099609 C 36.212727 35.099609 35.82791 35.244356 35.537109 35.535156 C 34.955514 36.116756 34.955507 37.07465 35.537109 37.65625 C 36.118704 38.23785 37.076608 38.23785 37.658203 37.65625 C 38.239806 37.07465 38.239799 36.116756 37.658203 35.535156 C 37.367402 35.244356 36.982586 35.099609 36.597656 35.099609 z M 27.404297 36.09375 C 27.53121 36.09375 27.658086 36.142438 27.757812 36.242188 C 27.957259 36.441587 27.957266 36.749719 27.757812 36.949219 C 27.558366 37.148619 27.250227 37.148619 27.050781 36.949219 C 26.851327 36.749719 26.851334 36.441587 27.050781 36.242188 C 27.150508 36.142438 27.277384 36.09375 27.404297 36.09375 z M 36.597656 36.09375 C 36.72457 36.09375 36.851445 36.142438 36.951172 36.242188 C 37.150619 36.441587 37.150626 36.749719 36.951172 36.949219 C 36.751726 37.148619 36.443587 37.148619 36.244141 36.949219 C 36.044687 36.749719 36.044694 36.441587 36.244141 36.242188 C 36.343867 36.142438 36.470743 36.09375 36.597656 36.09375 z M 32 37 C 31.177495 37 30.5 37.6775 30.5 38.5 C 30.5 39.3225 31.177495 40 32 40 C 32.822505 40 33.5 39.3225 33.5 38.5 C 33.5 37.6775 32.822505 37 32 37 z M 24.222656 37.78125 C 23.709765 37.78125 23.197025 37.974831 22.808594 38.363281 C 22.031731 39.140181 22.031731 40.414606 22.808594 41.191406 C 23.58545 41.968306 24.859856 41.968306 25.636719 41.191406 C 26.413582 40.414606 26.413575 39.140181 25.636719 38.363281 C 25.248287 37.974831 24.735547 37.78125 24.222656 37.78125 z M 39.779297 37.78125 C 39.266406 37.78125 38.753666 37.974831 38.365234 38.363281 C 37.588371 39.140181 37.588371 40.414606 38.365234 41.191406 C 39.14209 41.968306 40.416496 41.968306 41.193359 41.191406 C 41.970222 40.414606 41.970215 39.140181 41.193359 38.363281 C 40.804928 37.974831 40.292188 37.78125 39.779297 37.78125 z M 32 38 C 32.282065 38 32.5 38.218 32.5 38.5 C 32.5 38.7821 32.282065 39 32 39 C 31.717935 39 31.5 38.7821 31.5 38.5 C 31.5 38.218 31.717935 38 32 38 z M 24.222656 38.775391 C 24.477531 38.775391 24.732331 38.872962 24.929688 39.070312 C 25.324395 39.465013 25.324402 40.089675 24.929688 40.484375 C 24.534973 40.879075 23.910332 40.879075 23.515625 40.484375 C 23.120911 40.089675 23.120911 39.465012 23.515625 39.070312 C 23.712982 38.872962 23.967782 38.775391 24.222656 38.775391 z M 39.779297 38.775391 C 40.034172 38.775391 40.288971 38.872962 40.486328 39.070312 C 40.881035 39.465013 40.881042 40.089675 40.486328 40.484375 C 40.091614 40.879075 39.466973 40.879075 39.072266 40.484375 C 38.677552 40.089675 38.677552 39.465012 39.072266 39.070312 C 39.269623 38.872962 39.524422 38.775391 39.779297 38.775391 z M 32 41 C 30.901353 41 30 41.9014 30 43 C 30 44.0987 30.901353 45 32 45 C 33.098647 45 34 44.0987 34 43 C 34 41.9014 33.098647 41 32 41 z M 20.333984 41.169922 C 19.693132 41.169922 19.052468 41.412388 18.566406 41.898438 C 17.594283 42.870637 17.594283 44.463447 18.566406 45.435547 C 19.53853 46.407647 21.129439 46.407647 22.101562 45.435547 C 23.073685 44.463447 23.073685 42.870637 22.101562 41.898438 C 21.615501 41.412388 20.974837 41.169922 20.333984 41.169922 z M 43.667969 41.169922 C 43.027116 41.169922 42.386452 41.412388 41.900391 41.898438 C 40.928268 42.870637 40.928268 44.463447 41.900391 45.435547 C 42.872514 46.407647 44.463424 46.407647 45.435547 45.435547 C 46.40767 44.463447 46.40767 42.870637 45.435547 41.898438 C 44.949485 41.412388 44.308822 41.169922 43.667969 41.169922 z M 32 42 C 32.558207 42 33 42.4418 33 43 C 33 43.5582 32.558207 44 32 44 C 31.441793 44 31 43.5582 31 43 C 31 42.4418 31.441793 42 32 42 z M 20.333984 42.164062 C 20.716821 42.164062 21.099544 42.312472 21.394531 42.607422 C 21.984506 43.197422 21.984506 44.138516 21.394531 44.728516 C 20.804557 45.318416 19.863412 45.318416 19.273438 44.728516 C 18.683463 44.138516 18.683463 43.197422 19.273438 42.607422 C 19.568425 42.312472 19.951148 42.164062 20.333984 42.164062 z M 43.667969 42.164062 C 44.050805 42.164062 44.433529 42.312472 44.728516 42.607422 C 45.318491 43.197422 45.318491 44.138516 44.728516 44.728516 C 44.138542 45.318416 43.197396 45.318416 42.607422 44.728516 C 42.017447 44.138516 42.017447 43.197422 42.607422 42.607422 C 42.902409 42.312472 43.285132 42.164062 43.667969 42.164062 z M 15.738281 45.265625 C 14.969468 45.265625 14.198926 45.558878 13.615234 46.142578 C 12.44785 47.309978 12.447843 49.217366 13.615234 50.384766 C 14.782618 51.552166 16.691992 51.552166 17.859375 50.384766 C 19.026759 49.217366 19.026759 47.309978 17.859375 46.142578 C 17.27568 45.558878 16.507094 45.265625 15.738281 45.265625 z M 48.263672 45.265625 C 47.494859 45.265625 46.72627 45.558878 46.142578 46.142578 C 44.975194 47.309978 44.975187 49.217366 46.142578 50.384766 C 47.309961 51.552166 49.217383 51.552166 50.384766 50.384766 C 51.55215 49.217366 51.55215 47.309978 50.384766 46.142578 C 49.80107 45.558878 49.032485 45.265625 48.263672 45.265625 z M 32 46 C 30.62521 46 29.5 47.1252 29.5 48.5 C 29.5 49.8748 30.62521 51 32 51 C 33.37479 51 34.5 49.8748 34.5 48.5 C 34.5 47.1252 33.37479 46 32 46 z M 15.738281 46.259766 C 16.249078 46.259753 16.759723 46.456959 17.152344 46.849609 C 17.937579 47.634809 17.937579 48.892534 17.152344 49.677734 C 16.367109 50.463034 15.107501 50.463034 14.322266 49.677734 C 13.537023 48.892534 13.537031 47.634809 14.322266 46.849609 C 14.714883 46.457009 15.227484 46.259778 15.738281 46.259766 z M 48.263672 46.259766 C 48.774469 46.259753 49.285113 46.456959 49.677734 46.849609 C 50.462969 47.634809 50.462969 48.892534 49.677734 49.677734 C 48.892499 50.463034 47.634844 50.463034 46.849609 49.677734 C 46.064367 48.892534 46.064374 47.634809 46.849609 46.849609 C 47.242227 46.457009 47.752875 46.259778 48.263672 46.259766 z M 32 47 C 32.834349 47 33.5 47.6657 33.5 48.5 C 33.5 49.3344 32.834349 50 32 50 C 31.165651 50 30.5 49.3344 30.5 48.5 C 30.5 47.6657 31.165651 47 32 47 z M 32 52 C 30.349068 52 29 53.3491 29 55 C 29 56.651 30.349068 58 32 58 C 33.650932 58 35 56.651 35 55 C 35 53.3491 33.650932 52 32 52 z M 32 53 C 33.110492 53 34 53.8895 34 55 C 34 56.1105 33.110492 57 32 57 C 30.889508 57 30 56.1105 30 55 C 30 53.8895 30.889508 53 32 53 z " color="#000" font-family="sans-serif" font-weight="400" overflow="visible" style="line-height:normal;text-indent:0;text-align:start;text-decoration-line:none;text-decoration-style:solid;text-decoration-color:#000;text-transform:none;block-progression:tb;isolation:auto;mix-blend-mode:normal"/></svg>