<svg width="80" height="80" viewBox="0 0 80 80" fill="none" xmlns="http://www.w3.org/2000/svg">
<path d="M39.9998 74.4534C39.0726 74.4534 38.1315 74.2073 37.315 73.7424L28.7761 68.7522C27.5029 68.0413 28.1257 67.7952 28.5409 67.6584C30.2431 67.0706 30.5891 66.9475 32.402 65.9221C32.5958 65.8127 32.8449 65.8538 33.0386 65.9768L39.5985 69.8186C39.8337 69.9553 40.1659 69.9553 40.3873 69.8186L65.9485 55.2444C66.1837 55.1077 66.336 54.8342 66.336 54.5608V25.4124C66.336 25.1252 66.1837 24.8655 65.9346 24.7151L40.3873 10.1545C40.152 10.0178 39.8337 10.0178 39.5985 10.1545L14.065 24.7288C13.8159 24.8655 13.6636 25.1389 13.6636 25.426V54.5608C13.6636 54.8342 13.8159 55.1077 14.065 55.2307L21.0677 59.2229C24.8735 61.096 27.1985 58.8948 27.1985 56.6663V27.9006C27.1985 27.4905 27.5306 27.176 27.9458 27.176H31.1842C31.5855 27.176 31.9315 27.4905 31.9315 27.9006V56.6799C31.9315 61.6838 29.1636 64.5549 24.3614 64.5549C22.8806 64.5549 21.7181 64.5549 18.4797 62.969L11.7815 59.1545C10.1208 58.2112 9.09668 56.4475 9.09668 54.5471V25.4124C9.09668 23.5256 10.1208 21.7483 11.7815 20.8049L37.315 6.23071C38.9342 5.32837 41.0793 5.32837 42.6846 6.23071L68.2458 20.8186C69.9065 21.762 70.9306 23.5256 70.9306 25.426V54.5608C70.9306 56.4475 69.9065 58.2112 68.2458 59.1682L42.6846 73.7424C41.8681 74.2073 40.9409 74.4534 39.9998 74.4534ZM60.6342 45.7288C60.6342 40.2737 56.8976 38.8245 49.0507 37.7991C41.1069 36.76 40.3043 36.2268 40.3043 34.3948C40.3043 32.8772 40.9824 30.8538 46.8641 30.8538C52.1092 30.8538 54.0467 31.9749 54.8494 35.4749C54.9185 35.803 55.223 36.0491 55.569 36.0491H58.8904C59.098 36.0491 59.2918 35.967 59.4302 35.8166C59.5686 35.6663 59.6377 35.4612 59.6239 35.2561C59.1119 29.2268 55.0569 26.4241 46.8641 26.4241C39.5708 26.4241 35.2253 29.4592 35.2253 34.5588C35.2253 40.0823 39.5569 41.6135 46.5458 42.2971C54.9185 43.1038 55.569 44.3206 55.569 45.9475C55.569 48.7639 53.2717 49.967 47.8882 49.967C41.1208 49.967 39.64 48.2854 39.1418 44.9631C39.0864 44.6077 38.7819 44.3479 38.4083 44.3479H35.1007C34.6855 44.3479 34.3672 44.676 34.3672 45.0725C34.3672 49.3245 36.7061 54.3967 47.902 54.3967C55.9842 54.3831 60.6342 51.2249 60.6342 45.7288Z" fill="#C2CCDE"/>
</svg>
