<svg width="80" height="80" viewBox="0 0 80 80" fill="none" xmlns="http://www.w3.org/2000/svg">
<path d="M21.8866 15.2302C21.8866 19.5914 18.1064 23.1269 13.4433 23.1269C8.78019 23.1269 5 19.5914 5 15.2302C5 10.869 8.78019 7.3335 13.4433 7.3335C18.1064 7.3335 21.8866 10.869 21.8866 15.2302Z" fill="#C2CCDE"/>
<path d="M6.15464 28.9313H20.5876V72.6668H6.15464V28.9313Z" fill="#C2CCDE"/>
<path d="M43.8247 28.9313H29.3918V72.6668H43.8247C43.8247 72.6668 43.8247 58.8982 43.8247 50.2895C43.8247 45.1224 45.5891 39.9327 52.6289 39.9327C60.5847 39.9327 60.5368 46.6946 60.4997 51.9333C60.4512 58.7809 60.567 65.7688 60.567 72.6668H75V49.5842C74.8778 34.8453 71.0372 28.0539 58.4021 28.0539C50.8985 28.0539 46.2473 31.4604 43.8247 34.5425V28.9313Z" fill="#C2CCDE"/>
</svg>
