<svg xmlns="http://www.w3.org/2000/svg" width="130" height="130" viewBox="0 0 130 130"><path fill="#5EEF79" d="M105.133 10.224l-12.82-7.345a9.45 9.45 0 0 0-1.801-1.032l-.189-.107-.008.016C86.866.354 82.411.86 77.551 3.665L38.064 26.46c-10.857 6.269-19.74 21.655-19.74 34.193v45.591c0 6.114 2.123 10.45 5.547 12.577l-.033.06 14.248 8.073 8.012-13.95 31.453-18.157c10.855-6.269 19.74-21.656 19.74-34.193V23.876l7.842-13.652z"/><path fill="#48E069" d="M105.133 10.224L91.41 7.005c-.561-.408-3.363-.398-4.002-.678l-1.018-.406-1.831-.341C81.11 4.178 82.411.859 77.551 3.664L38.064 26.46c-10.857 6.269-19.74 21.655-19.74 34.193v45.591c0 6.114 2.123 10.45 5.547 12.577l-.033.06 14.248 8.073 8.012-13.95 31.453-18.157c10.855-6.269 19.74-21.656 19.74-34.193V23.876l7.842-13.652z"/><path fill="#37D660" d="M19.076 54.085c-.479 2.232-.752 4.442-.752 6.568v45.591c0 6.114 2.123 10.45 5.547 12.577l-.033.06 14.248 8.073 8.012-13.95 31.453-18.157c1.844-1.065 3.627-2.41 5.322-3.945L19.076 54.085z"/><path fill="#FFF" d="M51.635 34.329c-10.857 6.268-19.742 21.656-19.742 34.193v45.592c0 12.537 8.885 17.666 19.742 11.396l39.484-22.795c10.857-6.268 19.742-21.655 19.742-34.193V22.931c0-12.537-8.885-17.665-19.742-11.396L51.635 34.329z"/><path fill="#5BC0D8" d="M110.861 22.931c0-12.537-8.885-17.665-19.742-11.396L51.635 34.329c-10.857 6.268-19.742 21.656-19.742 34.193v45.592c0 12.537 8.885 17.666 19.742 11.396" opacity=".1"/><path fill="#FFF" d="M42.865 129h-.002c-7.158 0-11.783-5.843-11.783-14.886V68.522c0-12.828 9.037-28.484 20.146-34.898l39.486-22.795c3.201-1.848 6.289-2.784 9.178-2.784 7.158 0 11.785 5.844 11.785 14.886v45.592c0 12.829-9.039 28.484-20.148 34.898l-39.486 22.795C48.84 128.063 45.754 129 42.865 129zM99.891 9.673c-2.6 0-5.414.863-8.363 2.564L52.041 35.034c-10.66 6.155-19.334 21.178-19.334 33.488v45.592c0 8.178 3.891 13.258 10.156 13.258h.002c2.6 0 5.412-.863 8.361-2.564l39.486-22.797c10.66-6.154 19.334-21.178 19.334-33.488V22.931c.001-8.178-3.89-13.258-10.155-13.258z"/><path fill="#48E069" d="M57.42 88.462c-.771.446-1.398.119-1.635-.54-.281-.945.402-2.28 1.225-3.072 3.652-3.051 7.139-5.538 10.434-7.438 6.072-3.507 11.492-5.026 16.115-4.429.957-.072 1.1 1.103.693 2.275-.35.814-.875 1.467-1.424 1.784-.303.175-.613.248-.906.189-4.115-.54-8.898.784-14.312 3.909-3.057 1.766-6.314 4.104-9.766 7.008a2.531 2.531 0 0 1-.424.314m-.582-8.785c-.92.53-1.809.433-2.041-.476-.273-1.102.27-2.831 1.361-3.78 3.434-3.175 7.146-5.896 10.885-8.054 7.121-4.111 14.334-6.182 19.908-5.473.824-.008 1.236 1.332.555 2.833-.443.976-1.129 1.823-1.82 2.221-.359.208-.721.294-1.049.213-4.828-.598-11.285 1.282-17.58 4.917a52.254 52.254 0 0 0-9.654 7.194c-.186.16-.376.295-.565.405m-1.547-8.673c-1.102.636-2.092.366-2.432-.604-.42-1.335.4-3.384 1.629-4.564 3.66-3.358 8.219-6.676 13.02-9.449 7.928-4.576 16.518-7.665 22.838-7.001 1.234.076 1.646 1.726.965 3.534-.447.988-1.311 1.938-2.199 2.451-.461.267-.932.415-1.354.39-5.453-.567-13.172 2.236-20.234 6.313-4.301 2.483-8.357 5.438-11.512 8.392-.242.222-.485.4-.721.538m16.242-33.9C56.49 45.789 44.217 67.045 44.266 84.333c.049 17.295 12.402 24.334 27.447 15.648 15.051-8.69 27.324-29.947 27.275-47.242-.049-17.288-12.263-24.407-27.455-15.635"/><path fill="#37D660" d="M71.533 37.104C56.49 45.789 44.217 67.045 44.266 84.333c.041 14.487 8.717 21.771 20.375 18.652l14.92-25.841c-3.555.121-7.539 1.449-11.951 3.996-3.057 1.766-6.314 4.104-9.766 7.008a2.482 2.482 0 0 1-.424.313c-.771.446-1.398.119-1.635-.54-.281-.945.402-2.28 1.225-3.072 3.652-3.051 7.139-5.538 10.434-7.438 5.414-3.127 10.307-4.663 14.582-4.537l3.334-5.776a1.23 1.23 0 0 1-.723.063c-4.828-.598-11.285 1.282-17.58 4.917a52.254 52.254 0 0 0-9.654 7.194 3.79 3.79 0 0 1-.564.404c-.92.53-1.809.433-2.041-.476-.273-1.102.27-2.831 1.361-3.78 3.434-3.175 7.146-5.896 10.885-8.054 7.121-4.111 14.334-6.182 19.908-5.473.439-.004.754.382.857.965l10.227-17.713c-3.151-11.583-13.78-15.387-26.503-8.041zm19.778 15.815c-.447.988-1.311 1.938-2.199 2.451-.461.267-.932.415-1.354.39-5.453-.567-13.172 2.236-20.234 6.313-4.301 2.483-8.357 5.438-11.512 8.392a4.103 4.103 0 0 1-.721.539c-1.102.636-2.092.366-2.432-.604-.42-1.335.4-3.384 1.629-4.564 3.66-3.358 8.219-6.676 13.02-9.449 7.928-4.576 16.518-7.665 22.838-7.001 1.234.075 1.646 1.724.965 3.533z"/></svg>