<svg width="81" height="80" viewBox="0 0 81 80" fill="none" xmlns="http://www.w3.org/2000/svg">
<path fill-rule="evenodd" clip-rule="evenodd" d="M33.4699 5C27.9773 5 23.5246 9.31133 23.5246 14.6296V21.2963H40.7377V23.1481H15.8743C10.3816 23.1481 5.92896 27.4595 5.92896 32.7778L5.92896 47.2222C5.92896 52.5405 10.3816 56.8518 15.8743 56.8518H21.612V48.7037C21.612 43.3854 26.0647 39.0741 31.5574 39.0741H49.918C54.5656 39.0741 58.3333 35.426 58.3333 30.9259V14.6296C58.3333 9.31133 53.8806 5 48.388 5H33.4699ZM31.1748 16.8518C33.0762 16.8518 34.6175 15.3595 34.6175 13.5185C34.6175 11.6776 33.0762 10.1852 31.1748 10.1852C29.2735 10.1852 27.7322 11.6776 27.7322 13.5185C27.7322 15.3595 29.2735 16.8518 31.1748 16.8518Z" fill="#C2CCDE"/>
<path fill-rule="evenodd" clip-rule="evenodd" d="M48.3879 75C53.8805 75 58.3332 70.6887 58.3332 65.3704V58.7037H41.1201V56.8519L65.9835 56.8519C71.4762 56.8519 75.9288 52.5406 75.9288 47.2223V32.7778C75.9288 27.4595 71.4762 23.1482 65.9835 23.1482H60.2458V31.2964C60.2458 36.6147 55.7931 40.926 50.3004 40.926L31.9398 40.926C27.2921 40.926 23.5245 44.574 23.5245 49.0741L23.5245 65.3704C23.5245 70.6887 27.9772 75 33.4698 75H48.3879ZM50.6829 63.1482C48.7816 63.1482 47.2403 64.6406 47.2403 66.4815C47.2403 68.3225 48.7816 69.8148 50.6829 69.8148C52.5843 69.8148 54.1256 68.3225 54.1256 66.4815C54.1256 64.6406 52.5843 63.1482 50.6829 63.1482Z" fill="#C2CCDE"/>
</svg>
