<svg width="81" height="80" viewBox="0 0 81 80" fill="none" xmlns="http://www.w3.org/2000/svg">
<path d="M55.3958 53.8896C58.1635 53.608 60.2632 51.2623 60.1677 48.4471C60.0725 45.6322 57.6862 43.3802 54.823 43.3802H54.6323C51.6733 43.4741 49.3829 45.9136 49.4784 48.8224C49.5739 50.23 50.1464 51.4498 51.0054 52.2943C47.7604 58.5813 42.7976 63.179 35.3532 67.0262C30.2948 69.6536 25.0457 70.592 19.7966 69.9353C15.5017 69.3722 12.1612 67.4957 10.0612 64.3988C7.00732 59.8011 6.72109 54.8277 9.29804 49.8547C11.1115 46.2889 13.9744 43.6616 15.7879 42.3479C15.4061 41.1281 14.8334 39.0638 14.5472 37.5626C0.7082 47.4151 2.13994 60.7395 6.33935 67.0262C9.48877 71.7181 15.8834 74.6269 22.946 74.6269C24.8547 74.6269 26.7634 74.4391 28.6724 73.9702C40.8889 71.6242 50.1467 64.4927 55.3958 53.8896ZM72.1935 42.2543C64.9398 33.903 54.2506 29.3052 42.0341 29.3052H40.5071C39.6481 27.6162 37.8347 26.4901 35.8305 26.4901H35.6395C32.6811 26.584 30.3906 29.0235 30.4858 31.9326C30.5813 34.7475 32.9673 36.9995 35.8305 36.9995H36.0212C38.1209 36.9056 39.9344 35.592 40.6978 33.8091H42.4158C49.6694 33.8091 56.541 35.8734 62.7449 39.9083C67.5168 43.0049 70.9527 47.0398 72.8614 51.919C74.4839 55.86 74.3884 59.7072 72.6704 62.9915C69.9982 67.9646 65.5126 70.6859 59.5952 70.6859C55.7775 70.6859 52.1509 69.5597 50.2419 68.7152C49.1922 69.6536 47.2832 71.1548 45.947 72.0934C50.0512 73.9699 54.2506 75.0022 58.259 75.0022C67.4213 75.0022 74.1977 70.0289 76.7746 65.0558C79.5423 59.6133 79.3513 50.23 72.1935 42.2543ZM23.7095 55.4844C23.805 58.2996 26.1909 60.5514 29.0541 60.5514H29.2451C32.2038 60.4578 34.4942 58.0179 34.3987 55.1091C34.3035 52.294 31.9173 50.0422 29.0541 50.0422H28.8634C28.6724 50.0422 28.3858 50.0422 28.1954 50.1358C24.2822 43.7552 22.6598 36.8117 23.2325 29.3049C23.614 23.6749 25.5229 18.7955 28.8634 14.7605C31.6311 11.2886 36.9757 9.59966 40.6026 9.50605C50.7191 9.31826 55.0138 21.7042 55.3003 26.6776C56.541 26.959 58.6407 27.6159 60.0725 28.0851C58.9269 12.8843 49.3829 5.0022 40.2209 5.0022C31.6311 5.0022 23.7095 11.1014 20.5598 20.1094C16.1696 32.1201 19.0328 43.6616 24.3774 52.7635C23.9005 53.4202 23.614 54.4522 23.7095 55.4844Z" fill="#C2CCDE"/>
</svg>
