<svg width="81" height="80" viewBox="0 0 81 80" fill="none" xmlns="http://www.w3.org/2000/svg">
<path d="M41.1984 27.2243L41.2043 27.227C41.218 27.7354 41.2146 28.2326 41.2103 28.7168C41.207 28.5501 41.2072 28.38 41.2113 28.2068L41.1952 28.5059C41.1932 28.1446 41.1952 27.8162 41.1968 27.5445C41.1975 27.4267 41.1982 27.3189 41.1984 27.2243Z" fill="#C2CCDE"/>
<path fill-rule="evenodd" clip-rule="evenodd" d="M5.5 40C5.5 20.67 21.17 5 40.5 5C59.83 5 75.5 20.67 75.5 40C75.5 59.33 59.83 75 40.5 75C21.17 75 5.5 59.33 5.5 40ZM43.0853 14.1057L41.6572 19.9185C43.6801 15.813 46.893 12.7238 50.5821 10C47.8848 13.2113 45.4257 16.4229 43.9183 19.6342C46.457 15.9755 49.8682 13.9432 53.7157 12.6017C48.7225 17.1634 44.7343 22.0503 41.6693 26.9677L43.8785 27.2764C42.8471 30.7723 45.9017 33.2112 46.8933 33.7806C49.1145 35.0408 51.2565 36.3415 52.9623 37.9268C56.1754 40.9348 58 45.1626 58 49.6341C58 54.0649 56.0166 58.3331 52.6846 61.1786C49.5511 63.8616 45.2276 64.9998 41.0229 64.9998C38.4048 64.9998 36.0645 64.8781 33.526 64.0241C27.7349 62.0323 23.4111 56.9512 23.0542 50.8533C22.7367 46.0972 23.7681 42.4793 27.378 38.6989C28.7536 37.2289 31.1665 35.604 33.3729 34.1181C34.1562 33.5906 34.9134 33.0806 35.589 32.6013C36.8585 31.7069 38.207 29.1864 35.6285 24.4306L36.1443 24.024L39.0116 25.9921C39.4801 22.0452 40.9476 18.0093 43.0853 14.1057Z" fill="#C2CCDE"/>
</svg>
